<svg enable-background="new 0 0 100 100.02" height="316.227766" viewBox="0 0 100 100.02" width="316.227766" xmlns="http://www.w3.org/2000/svg"><path d="m100 50.01c0 27.63-22.38 50.01-49.99 50.01s-50.01-22.38-50.01-50.01c0-27.61 22.4-50.01 50.01-50.01s49.99 22.4 49.99 50.01" fill="#00a340"/><path d="m56.55 23.27-.92.41c-.41.17-.85.39-1.14.41-.07.05-.32-.12-.48-.29-.29-.24-.73-.63-1.26-.41-.68.29-2.81 2.18-3.44 2.93-.17.19-.58.39-1.09.58v.82c.7-.24 1.38-.55 1.67-.89.63-.75 2.68-2.52 3.15-2.69.07-.05.29.12.51.29.24.22.63.55 1.11.46.39-.07.85-.29 1.26-.53l.8-.34h.05c0 .05.12.17.12.17.07.17.24.41.53.53.44.22 1.89 1.72 1.98 2.27.02 0 .02.05.02.05 0 .41-.7 1.84-1.4 2.95-.05.05-.1.15-.1.22 0 .05.05.05.05.07 0 0 .97 3.7 1.04 3.99-.12.2-.41.7-.41.7 0 .05-.05.1-.05.12 0 .05-.05.27-.05.51 0 .29.05.63.22.97.05.05.05.12.05.24 0 .46-.29 1.31-.46 1.77-.1.34-.17.87-.22 1.45-.07.68-.17 1.43-.36 1.94-.27.68-.27 1.94-.32 3.03l-.07 1.28c-.12.92-.24 2.86-.24 3.68 0 .73-.44 3.03-.6 3.82 0 .05-.02.07-.02.07 0 .05 0 .05.02.05 0 0 .22 1.79.22 1.96-.39 1.02-.87 2.18-1.09 2.35-.36.39-.68 1.72-.8 2.42-1.04.5-1.11 2.01-1.11 2.52-.85.75-1.93 2.93-2.06 3.65l-.1.41c-.17.85-.29 1.67-.29 2.29 0 .39.05.73.17.92.22.41.39 2.98.46 4.35l.1 1.73c-.22 0-.77-.22-1.23-.51-.12-.07-.24-.07-.36 0-.12.05-.22.22-.22.34 0 .1-.05.1-.05.12-.02.05-.15.1-.29.1-.12-.39-.58-1.67-.65-1.88.07-.24.24-.68.24-1.19 0-.29-.07-.6-.22-.94-.29-.75-.63-1.28-.99-1.67v1.36c.1.17.19.36.29.6.07.24.12.46.12.65 0 .56-.19.94-.19.94-.05.07-.1.14-.1.19s.05.09.05.12l.82 2.35c.05.12.17.22.34.27.1 0 .72.02 1.09-.32.05-.02.1-.12.12-.14.51.29 1.26.58 1.69.29.12-.1.31-.27.31-.63v-.12l-.12-1.69c-.17-2.83-.24-4.21-.53-4.67-.05-.1-.1-.29-.1-.51 0-.68.22-1.72.29-2.18l.1-.46c.12-.63 1.31-2.86 1.89-3.27.12-.07.17-.22.17-.29v-.05-.11c0-.39.07-1.67.82-1.89.12-.07.27-.17.27-.34.17-.92.46-2.03.63-2.2.41-.39 1.11-2.15 1.33-2.68v-.12-.05s-.22-1.94-.24-2.01c.07-.39.6-3.05.6-3.94 0-.77.15-2.71.22-3.56l.1-1.38c.02-.99.02-2.2.29-2.81.19-.58.29-1.38.36-2.08.1-.51.12-1.04.22-1.31.24-.75.46-1.45.46-2.01 0-.24 0-.41-.1-.63-.12-.17-.12-.36-.12-.58v-.34c.1-.07.46-.75.46-.75.05-.05.05-.12.05-.19v-.1s-.97-3.68-1.04-3.97c.41-.72 1.43-2.44 1.43-3.27v-.12c-.17-.89-1.86-2.56-2.4-2.86-.12-.05-.22-.17-.29-.29-.18-.2-.42-.56-.97-.45m-8.33 3.64c-.68.24-1.55.48-2.23.6-.12.02-.19.12-.24.19-.63.97-.92 1.67-.92 2.1 0 .03 0 .12.05.17v.03c0 .22-.14.63-.22.89l-.17.7c-.12.51-1.16 2.52-1.5 2.98-.39.53-.56 1.55-.56 1.79-.12.17-1.43 2.27-1.43 2.27-.02.02-.02.07-.02.12 0 0-.22 1.09-.26 1.26-.07.12-1.04 1.38-1.04 1.38-.05.07-.07.12-.07.19 0 .05 0 .1.02.1 0 0 .17.97.22 1.14-.12.36-.46 1.62-.46 2.32 0 .34-1.04 2.06-2.01 3.41 0 .02-.05.07-.05.12l-1.09 4.01c-.02.05-.02.07-.02.07v.05l.24 2.3s.12 4.06.12 4.23c-.12.19-.36.7-.36 1.21 0 .7.87 1.16 1.45 1.43l.63.24c.24.05.87.26.97.39 0 .7.12 2.03.51 2.98.36.87 2.03 3.1 2.13 3.22.02.07.12.12.24.17.51.02 1.96.31 2.59.82.29.29.68.43 1.09.56.82.24 1.67.5 2.4 1.86v-1.36c-.73-.82-1.53-1.06-2.13-1.26-.34-.1-.68-.22-.85-.39-.8-.68-2.35-.97-2.83-1.04-.51-.68-1.64-2.3-1.94-2.93-.29-.75-.41-2.01-.41-2.64 0-.73-.89-.97-1.55-1.14l-.51-.17c-.24-.17-1.02-.51-1.02-.75 0-.34.22-.75.29-.87.05-.1.1-.17.1-.22l-.12-4.41s-.22-2.13-.27-2.25c.05-.12 1.07-3.73 1.07-3.9.53-.75 2.08-3 2.08-3.77 0-.53.34-1.79.51-2.2v-.12-.05s-.17-.8-.22-1.04c.17-.26.97-1.35.97-1.35.05-.03.07-.07.07-.17 0 0 .22-1.11.27-1.26.05-.12 1.38-2.2 1.38-2.2.05-.1.05-.12.07-.22.05-.41.17-1.16.44-1.5.36-.46 1.5-2.59 1.62-3.27l.17-.68c.12-.36.24-.75.24-1.09 0-.07-.02-.17-.07-.29v.05c.05-.17.39-.85.75-1.5.36-.1 1.14-.26 1.89-.53v-.78z" fill="#fff"/><path d="m59.47 64.07c-1.28.92-2.81 1.38-4.6 1.38-2.23 0-4.07-.61-5.52-1.84v5.64c1.7.51 3.56.77 5.59.77 3.56 0 6.48-.73 8.81-2.1 2.3-1.4 4.4-3.87 4.79-7.99l-6.31-.07c-.58 1.91-1.5 3.34-2.76 4.21m-10.11-6.9c.05-.02.1-.02.17-.05 1.91-.51 3.46-1.21 4.64-2.13 1.55-1.16 2.71-2.71 3.51-4.69.34-.75.58-1.57.75-2.52.38.17.8.39 1.13.6 1.26.8 2.03 1.87 2.47 3.27h6.53c-.51-3.14-1.86-4.98-3.36-6.17-1.79-1.38-4.02-2.2-6.61-2.64-.12-1.72-.46-3.17-.97-4.43-.75-1.72-1.79-3.14-3.17-4.31-1.36-1.18-3.03-1.96-4.94-2.42-.07-.02-.12-.05-.17-.05v5.59c.75.63 1.35 1.43 1.79 2.49.34.82.53 1.86.63 3.17-.85.15-1.64.34-2.42.58v5.56c.63-.53 1.38-.97 2.2-1.26-.12.56-.24 1.07-.41 1.48-.46 1.16-1.02 2.06-1.72 2.54l-.07.07v5.32zm0 6.44c-.12-.07-.24-.19-.34-.29-1.31-1.21-2.01-3.15-2.23-5.78.97-.07 1.81-.17 2.56-.36v-5.3c-.63.43-1.38.75-2.23.94.39-1.48.99-2.64 1.94-3.51.07-.1.17-.19.29-.27v-5.56c-1.98.6-3.73 1.55-5.2 2.81-2.05 1.77-3.39 4.06-3.92 6.92h-2.44v-17.5h2.98c2.71 0 4.52.07 5.44.24 1.26.22 2.25.63 3.05 1.21.02.03.05.05.1.07v-5.59c-1.43-.31-3.46-.46-6.07-.46h-12.15v26.49h8.78c.26 3.63 1.64 6.56 4.19 8.73 1.52 1.28 3.27 2.23 5.25 2.83z" fill="#fff"/><path d="m98.09 58.96-13.19-22.77-13.35 23.86 5.06-.2c-4.02 10.85-14.38 18.54-26.6 18.54-15.66 0-28.36-12.73-28.36-28.38s12.7-28.38 28.36-28.38c8.25 0 15.7 3.53 20.86 9.17h17.66c-7.06-14.13-21.6-23.86-38.52-23.86-23.76 0-43.07 19.26-43.07 43.07s19.31 43.07 43.07 43.07c20.61 0 37.87-14.49 42.07-33.85z" fill="#fff"/><path d="m84.76 36.12.02.15 13.16 22.77.27-.15-13.19-22.77h-.26.26l-.02-.02-.03-.03h-.02v-.02h-.02-.03-.02-.03v.02h-.02-.02v.03h-.03v.02h-.02v.03.02.03.02.03.02h.02z" fill="#fff"/><path d="m71.55 60.2.12-.07 13.35-23.86-.26-.15-13.34 23.86.13.22-.13-.22-.02.02v.03.02.03.02.03h.02v.02l.03.02h.02v.03h.03.02.03.02.02.03l.02-.03.03-.02v-.02z" fill="#fff"/><path d="m50.01 78.54 1.16-.03 1.14-.07 1.11-.1 1.12-.17 1.09-.19 1.08-.24 1.07-.27 1.04-.31 1.02-.36 1.01-.39 1-.44.96-.46.97-.5.92-.54.89-.55.9-.61.87-.63.8-.68.8-.7.8-.72.75-.75.72-.78.7-.82.66-.82.65-.85.61-.9.55-.89.53-.94.51-.95.49-.96.43-1 .39-1.01-.27-.12-.41 1.01-.41.97-.48.97-.49.94-.53.92-.58.9-.58.87-.63.87-.68.82-.68.8-.72.77-.75.73-.78.72-.77.71-.82.65-.85.63-.87.58-.89.58-.92.53-.95.49-.97.46-.99.43-.99.39-1.02.34-1.04.31-1.04.29-1.06.22-1.09.19-1.11.15-1.09.12-1.14.07-1.14.03h-.02-.03-.02v.02h-.03v.03h-.02v.02.02h-.02v.03.02.03.02h.02v.02.03h.02l.03.02h.02v.03h.03z" fill="#fff"/><path d="m21.49 50.01.04 1.48.13 1.43.17 1.42.24 1.4.33 1.38.39 1.36.44 1.33.51 1.31.58 1.25.63 1.24.67 1.18.75 1.17.8 1.11.85 1.09.89 1.01.95 1 .99.94 1.04.92 1.07.85 1.13.77 1.14.75 1.21.7 1.23.63 1.26.56 1.28.5 1.33.47 1.36.38 1.38.32 1.4.24 1.43.19 1.45.1 1.45.05v-.29l-1.45-.05-1.43-.1-1.4-.19-1.4-.24-1.36-.32-1.33-.39-1.31-.43-1.28-.51-1.26-.55-1.21-.63-1.18-.68-1.16-.75-1.09-.78-1.07-.84-1.04-.9-.96-.92-.95-.99-.89-1.02-.83-1.06-.8-1.11-.72-1.14-.68-1.19-.63-1.2-.55-1.27-.51-1.28-.46-1.3-.39-1.36-.31-1.35-.24-1.38-.18-1.43-.11-1.43-.03-1.45v-.02l-.03-.03v-.02-.03h-.02l-.02-.02h-.03v-.02h-.02-.02-.03-.02-.03v.02h-.02l-.03.02-.02.03v.02.03h-.02z" fill="#fff"/><path d="m50.01 21.49-1.45.04-1.45.1-1.43.19-1.4.25-1.38.31-1.36.39-1.33.46-1.28.51-1.26.58-1.23.63-1.21.67-1.14.75-1.13.8-1.07.85-1.04.89-.99.95-.95.99-.89 1.04-.85 1.06-.8 1.12-.75 1.16-.68 1.21-.62 1.21-.58 1.28-.51 1.28-.44 1.33-.39 1.36-.33 1.38-.25 1.4-.16 1.43-.12 1.45-.05 1.45h.31l.02-1.45.13-1.43.17-1.4.24-1.41.31-1.35.39-1.33.46-1.33.51-1.28.55-1.24.63-1.23.68-1.16.73-1.17.79-1.11.83-1.06.89-1.02.95-.97.96-.94 1.04-.9 1.07-.82 1.09-.8 1.16-.72 1.19-.7 1.2-.61 1.26-.58 1.28-.51 1.31-.43 1.33-.39 1.36-.32 1.4-.24 1.4-.16 1.43-.13 1.45-.02h.03l.02-.02h.03.02v-.03h.02v-.02h.03v-.03-.02-.02-.03-.02-.03-.02h-.03v-.03h-.02v-.02h-.02-.03v-.02h-.02z" fill="#fff"/><path d="m70.87 30.65.12.05-.51-.53-.51-.51-.5-.51-.54-.48-.55-.46-.54-.46-.55-.46-.58-.41-.61-.44-.6-.38-.61-.39-.63-.39-.63-.33-.65-.34-.65-.34-.66-.29-.67-.29-.68-.29-.7-.24-.7-.25-.71-.22-.7-.21-.72-.17-.73-.17-.73-.15-.74-.14-.75-.1-.76-.1-.74-.07-.78-.05-.77-.02-.78-.02v.31h.78l.75.02.77.05.75.07.75.1.73.1.72.14.73.15.72.17.73.17.7.19.7.24.68.22.68.27.68.26.67.29.66.29.65.34.63.34.63.34.6.36.61.39.6.39.58.41.59.43.55.44.53.46.56.46.51.48.53.51.51.51.48.51.1.04-.1-.04v.02h.03l.02.02h.03.02.02.03.02l.02-.02h.03v-.02l.02-.03v-.02l.03-.02v-.03l-.03-.02v-.03-.02h-.02v-.03z" fill="#fff"/><path d="m88.68 30.73-.15-.08h-17.66v.3h17.66l.15-.22-.15.22h.03.02.02.03v-.03l.02-.02h.03v-.03-.02-.03-.02-.02-.03-.02l-.03-.03h-.02v-.02h-.03l-.02-.03h-.02-.03z" fill="#fff"/><path d="m50.01 7.09 1.58.05 1.57.07 1.52.14 1.55.2 1.5.24 1.48.29 1.47.36 1.45.39 1.43.43 1.41.52 1.4.53 1.35.6 1.31.63 1.31.68 1.28.72 1.26.75 1.23.8 1.19.85 1.16.9 1.13.92 1.12.96 1.06.99 1.04 1.04 1 1.07.96 1.09.92 1.13.87 1.17.87 1.18.8 1.24.78 1.25.72 1.29.68 1.3.27-.14-.7-1.31-.73-1.28-.77-1.26-.8-1.24-.88-1.2-.89-1.19-.92-1.14-.97-1.11-1.01-1.06-1.04-1.04-1.07-1-1.11-.96-1.14-.95-1.18-.89-1.19-.85-1.26-.8-1.26-.77-1.28-.73-1.33-.68-1.31-.62-1.37-.61-1.39-.56-1.42-.48-1.43-.46-1.47-.39-1.48-.36-1.5-.29-1.53-.24-1.52-.2-1.55-.14-1.57-.1-1.6-.02h-.02-.03v.02h-.02l-.03.03-.02.02v.03l-.02.02v.02.03.02l.02.03v.02l.02.02h.03v.03h.02.03z" fill="#fff"/><path d="m7.11 50.01.05-2.2.17-2.18.27-2.15.38-2.13.47-2.08.58-2.03.67-1.99.78-1.96.87-1.88.94-1.87 1.04-1.79 1.11-1.74 1.19-1.69 1.28-1.63 1.36-1.54 1.4-1.5 1.5-1.41 1.55-1.35 1.62-1.28 1.69-1.19 1.75-1.11 1.79-1.04 1.86-.95 1.89-.84 1.96-.78 1.98-.67 2.03-.59 2.08-.48 2.11-.36 2.15-.27 2.18-.17 2.2-.07v-.29l-2.22.07-2.18.15-2.18.29-2.1.36-2.11.48-2.06.58-2 .68-1.96.78-1.92.87-1.86.94-1.81 1.04-1.74 1.14-1.7 1.21-1.62 1.28-1.57 1.36-1.5 1.42-1.43 1.5-1.38 1.58-1.28 1.62-1.19 1.69-1.13 1.77-1.04 1.79-.95 1.86-.87 1.91-.77 1.99-.68 2-.58 2.04-.49 2.1-.38 2.13-.27 2.15-.17 2.2-.07 2.23v.03.02h.03v.02.03h.02v.02h.02l.03.03h.02.02.03.02.03l.02-.03h.03v-.02h.02v-.03-.02l.02-.02z" fill="#fff"/><path d="m50.01 92.93-2.2-.07-2.18-.14-2.15-.29-2.1-.37-2.09-.48-2.03-.58-1.98-.68-1.96-.75-1.89-.87-1.86-.95-1.79-1.04-1.75-1.11-1.69-1.18-1.62-1.28-1.55-1.36-1.5-1.4-1.4-1.5-1.36-1.55-1.28-1.62-1.18-1.7-1.12-1.74-1.04-1.79-.94-1.84-.87-1.91-.78-1.96-.67-1.98-.58-2.04-.46-2.08-.39-2.1-.27-2.15-.17-2.18-.05-2.23h-.31l.07 2.23.17 2.2.27 2.15.38 2.13.49 2.11.58 2.05.68 2.01.77 1.96.87 1.91.95 1.87 1.04 1.81 1.13 1.74 1.19 1.7 1.28 1.64 1.38 1.55 1.43 1.5 1.5 1.45 1.57 1.36 1.62 1.28 1.7 1.18 1.74 1.14 1.81 1.04 1.87.95 1.91.87 1.96.77 2 .68 2.06.58 2.1.48 2.11.39 2.18.27 2.18.16 2.22.05h.03.02.03l.02-.02.02-.03.03-.02v-.02-.03-.02-.02-.03-.02l-.03-.03-.02-.02-.02-.03h-.03-.02z" fill="#fff"/><path d="m92.09 59.08-.15.1-.43 1.82-.49 1.76-.58 1.72-.65 1.69-.73 1.67-.79 1.62-.85 1.6-.92 1.55-.97 1.5-1.04 1.45-1.09 1.43-1.16 1.35-1.21 1.34-1.26 1.25-1.3 1.21-1.36 1.16-1.43 1.09-1.45 1.04-1.5 1-1.55.91-1.57.85-1.59.8-1.68.73-1.69.65-1.72.58-1.76.51-1.79.46-1.82.36-1.86.27-1.86.21-1.89.13-1.94.04v.3l1.94-.05 1.91-.12 1.89-.2 1.86-.29 1.84-.36 1.79-.46 1.77-.51 1.74-.58 1.72-.68 1.66-.72 1.63-.8 1.59-.85 1.55-.94 1.5-.97 1.48-1.06 1.4-1.12 1.38-1.16 1.33-1.21 1.26-1.28 1.21-1.33 1.16-1.36 1.11-1.43 1.04-1.47 1-1.52.91-1.55.85-1.6.8-1.64.73-1.68.65-1.71.58-1.74.51-1.77.43-1.82-.12.12.12-.12v-.02-.02-.03-.02l-.02-.03v-.02h-.02v-.03h-.03-.02-.03-.02-.03-.02-.03v.03h-.02l-.02.02v.03.02h-.03z" fill="#fff"/><path d="m76.75 59.91-.15-.22-5.05.22v.29l5.08-.2.12-.09-.12.09h.02l.03-.02h.02v-.02h.02v-.03h.03v-.02-.03-.02-.03-.02-.02l-.03-.03v-.02h-.02v-.03h-.02-.03l-.02-.02h-.03z" fill="#fff"/><path d="m98.21 58.89-.15-.07-5.97.26.02.29 5.98-.26.12-.22-.12.22h.02.03.02v-.03h.03v-.02h.02v-.02-.03h.02v-.02-.03-.02l-.02-.03v-.02l-.02-.02v-.03h-.03-.02v-.02h-.03-.02-.03z" fill="#fff"/><g fill="#231815"><path d="m15.36 60.17-.02.87c-.73.02-1.31-.19-1.77-.56-.46-.36-.8-.87-.94-1.55-.17-.65-.17-1.24 0-1.72.2-.51.48-.92.99-1.28.46-.31.97-.58 1.6-.7.63-.17 1.23-.17 1.82-.05.53.12.99.41 1.33.77.36.44.63.9.75 1.45.17.63.12 1.19-.1 1.7-.19.48-.61.92-1.11 1.23l-.41-.77c.41-.26.73-.56.85-.89.15-.34.17-.7.05-1.09-.1-.51-.29-.87-.63-1.16-.31-.27-.68-.41-1.09-.46-.44-.05-.85.03-1.24.1-.56.15-1.02.31-1.38.58-.34.26-.6.56-.7.92-.12.39-.15.77-.07 1.14.15.48.39.87.73 1.11.33.27.79.39 1.34.36"/><path d="m17.52 61.48c.1.02.2.05.27.1.56.24.94.61 1.19 1.23.19.58.19 1.11-.05 1.64s-.7.92-1.4 1.16v-.91.02c.41-.15.63-.36.78-.58.17-.36.19-.73.07-1.09-.15-.36-.36-.63-.68-.75-.07-.02-.12-.05-.17-.07v-.75zm-1.16 3.68.17.84c-.48.02-.92-.07-1.26-.29-.39-.24-.7-.58-.89-1.09-.24-.68-.24-1.24.05-1.79.24-.48.7-.92 1.45-1.19.58-.24 1.14-.26 1.65-.17v.75c-.29-.07-.6-.07-.92.07l.92 2.4v.92c-.02.02-.05.02-.1.02-.02.05-.1.05-.2.1l-1.23-3.29c-.51.24-.8.51-.94.87-.17.34-.19.7-.05 1.07.1.26.29.46.48.6.21.15.5.2.87.18"/><path d="m15.75 67.62 4.16-2.18.31.6-.58.34c.6.02 1.09.36 1.35.94.15.24.24.51.26.75.02.27-.05.48-.12.65-.1.2-.22.37-.41.51-.12.1-.34.22-.65.41l-2.57 1.31-.36-.7 2.51-1.31c.32-.14.51-.27.61-.41.12-.17.19-.29.17-.48.05-.17-.03-.36-.12-.55-.12-.32-.39-.51-.68-.63s-.73-.05-1.26.24l-2.25 1.21z"/><path d="m19.77 73.14-.53.46c-.15-.14-.27-.29-.36-.43-.17-.24-.27-.48-.29-.63 0-.22.07-.36.14-.51.1-.12.34-.29.72-.56l2.25-1.5-.31-.48.51-.31.36.48.97-.63.82.39-1.38.89.44.65-.54.36-.41-.7-2.32 1.5c-.17.12-.29.22-.34.29-.02.05-.07.15-.05.22 0 .05.05.15.1.24.05.08.12.2.22.27"/><path d="m23.3 72c.53.08.94.36 1.31.8.39.49.56 1.04.49 1.62-.1.56-.46 1.06-1.02 1.59-.05 0-.12.05-.19.12l-.58-.7v-1.07l.58.68c.27-.24.44-.51.51-.8.05-.36-.02-.73-.26-1.02-.22-.29-.48-.44-.82-.48v-.74zm-.46 3.85.46.73c-.46.19-.92.24-1.31.14-.41-.14-.85-.39-1.16-.8-.44-.53-.58-1.09-.51-1.67.07-.61.41-1.11.97-1.6.61-.48 1.23-.73 1.81-.68.07 0 .12 0 .2.02v.75c-.02-.03-.05-.03-.07-.03-.32-.02-.68.05-1.02.32l1.09 1.33v1.07l-1.62-2.03c-.39.34-.61.73-.65 1.09-.02.36.05.73.31 1.01.17.24.39.39.63.44.29.08.56.01.87-.09"/><path d="m23.06 78.3 3.27-3.36.51.53-.48.46c.36-.1.63-.12.8-.1.22.03.36.1.51.27.17.17.31.41.36.72l-.7.34c-.05-.24-.15-.39-.27-.56-.14-.09-.29-.17-.46-.19-.17 0-.31.02-.51.1-.24.14-.51.36-.72.58l-1.74 1.76z"/><path d="m25.99 79.22.7.39c-.15.26-.19.55-.15.77.05.29.24.51.48.75.32.22.56.31.8.29.24 0 .39-.07.53-.24.12-.17.15-.31.05-.48 0-.12-.17-.34-.44-.73-.41-.46-.63-.8-.73-1.04-.12-.19-.19-.44-.12-.63-.02-.24.09-.46.24-.63.1-.17.26-.29.46-.34.2-.1.34-.14.56-.12.15-.02.36 0 .56.12.22.05.39.17.58.31.32.22.53.48.65.73.19.26.24.5.26.75-.02.2-.1.44-.24.7l-.65-.41c.1-.19.12-.41.07-.61-.05-.19-.2-.43-.46-.6-.24-.24-.48-.34-.7-.32-.19 0-.36.05-.46.2-.05.07-.07.17-.07.29-.02.07.02.19.12.34.05.07.17.27.43.58.31.46.58.8.68.99.12.24.19.44.17.68-.02.19-.1.41-.29.65-.15.17-.36.36-.6.41-.27.1-.56.12-.9.08-.26-.1-.56-.24-.87-.46-.51-.39-.77-.75-.87-1.16-.11-.4-.01-.8.21-1.26"/><path d="m31.55 84.63 1.84-3.63-.68-.31.29-.56.63.32.24-.46c.14-.29.24-.46.36-.58.19-.14.39-.22.63-.24.19-.05.48 0 .77.19.22.1.41.19.63.39l-.39.56c-.17-.12-.31-.2-.43-.27-.2-.09-.37-.12-.53-.07-.12.05-.27.17-.36.46l-.22.39.82.39-.27.53-.85-.39-1.79 3.63z"/><path d="m36.39 81.73c.27 0 .56.05.85.17.6.19 1.04.6 1.23 1.11.24.56.24 1.16 0 1.86-.2.56-.44.99-.75 1.26-.26.24-.6.39-1.01.51h-.31v-.67c.17-.03.31-.08.46-.2.36-.17.65-.56.85-1.14.22-.53.22-.97.07-1.38-.15-.34-.41-.6-.78-.75-.22-.07-.41-.1-.6-.07v-.7zm-2.08 1.74c.32-.82.77-1.35 1.35-1.6.24-.1.48-.15.73-.15v.7c-.17.02-.31.07-.48.14-.34.19-.6.58-.8 1.16-.19.58-.27 1.02-.1 1.4.14.36.39.63.77.75.2.08.41.1.61.08v.67c-.29 0-.56-.02-.85-.12-.63-.24-1.02-.63-1.26-1.16-.24-.49-.24-1.14.03-1.87"/><path d="m38.74 87.39 1.09-4.55.7.14-.15.7c.22-.27.44-.48.61-.53.19-.05.34-.07.55-.02.24.05.48.19.7.41l-.43.65c-.17-.12-.34-.22-.53-.29-.17-.02-.34-.02-.48.07-.17.05-.27.17-.39.34-.14.27-.24.56-.34.87l-.56 2.37z"/><path d="m47.23 82.19c.41 0 .73.05.95.15.36.1.7.27.94.51.31.29.53.68.68 1.16.17.41.2.94.2 1.5-.05.48-.12.94-.27 1.31-.15.38-.27.7-.46.92-.22.27-.41.44-.65.58-.22.1-.46.22-.77.24-.17.05-.36.07-.61.07v-.75c.22-.02.37-.05.51-.07.26-.07.46-.17.63-.29.17-.22.36-.46.51-.8.12-.34.17-.77.22-1.26.05-.65-.02-1.16-.27-1.55-.17-.39-.43-.65-.72-.8-.22-.1-.51-.15-.87-.17v-.75zm-2.73 6.32.32-6.46 2.2.12c.1 0 .17.02.22.02v.75h-.24l-1.35-.1-.27 4.96 1.38.07h.48v.75h-.43z"/><path d="m50.98 88.7-.17-4.69.8-.02.17 4.67zm-.19-5.59-.02-.87.77-.03.02.9z"/><path d="m52.58 87.27.75-.19c.1.29.22.51.44.65.22.15.51.22.87.19.34-.07.63-.17.77-.34s.22-.34.19-.53c0-.2-.1-.31-.27-.39-.12-.07-.41-.12-.8-.19-.63-.07-1.04-.17-1.28-.22-.24-.12-.41-.22-.53-.41-.15-.19-.24-.39-.27-.63 0-.19.02-.36.1-.55.05-.22.17-.34.31-.51.12-.1.26-.19.51-.29.19-.1.39-.14.68-.17.31-.02.68 0 .97.07.29.05.48.19.63.34.17.19.26.39.36.7l-.75.17c-.05-.22-.2-.39-.39-.53-.17-.1-.41-.12-.75-.1-.31.02-.58.12-.73.29-.12.12-.19.24-.19.41.02.12.08.2.15.27.05.07.17.15.29.19.1.02.34.05.75.15.56.07.97.12 1.18.19.24.09.44.22.58.36.12.19.22.39.24.68.07.27 0 .51-.14.77-.1.24-.34.46-.61.61-.27.17-.58.24-.94.29-.61.05-1.09 0-1.43-.22-.33-.21-.6-.55-.69-1.06"/><path d="m60.59 85.7.85-.1c-.03.48-.15.89-.44 1.23-.27.39-.65.61-1.21.77-.27.07-.56.1-.8.07v-.7c.22.05.44.05.63 0 .31-.12.51-.24.7-.41.14-.21.24-.5.27-.86m-1.6-2.9c.41-.02.8.07 1.16.26.48.34.85.87 1.04 1.62 0 .05.02.09.07.19l-2.27.63v-.68l1.26-.36c-.14-.39-.26-.61-.48-.75-.24-.2-.51-.27-.78-.27zm0 4.88c-.31-.03-.63-.12-.9-.29-.51-.31-.87-.82-1.09-1.57-.17-.75-.12-1.4.12-1.89.29-.56.75-.89 1.38-1.06.14-.05.31-.07.48-.07v.65c-.12 0-.22.02-.34.05-.34.1-.6.29-.8.58-.12.34-.19.65-.12 1.09l1.26-.34v.68l-1.14.31c.17.46.44.8.73.99.12.07.27.14.41.17v.7z"/><path d="m65.69 84.61c-.17.34-.31.63-.53.85-.24.22-.46.39-.73.53-.1.05-.17.07-.26.1v-.7c.05-.02.12-.05.17-.07.29-.1.51-.27.65-.53.15-.19.24-.46.27-.7 0-.19-.07-.44-.22-.77l-.12-.24c-.19.17-.41.36-.75.58v-.8c.19-.12.36-.26.51-.36-.05-.12-.1-.17-.1-.19-.12-.22-.26-.39-.41-.49v-.85c.15.02.29.05.36.12.17.07.34.17.46.36.1.12.19.36.34.68l.46.97c.29.65.53 1.04.6 1.24.15.17.27.31.44.41l-.73.34c-.17-.12-.31-.29-.41-.48m-1.52 1.48c-.36.09-.73.12-1.02.05-.34-.12-.58-.34-.78-.68-.1-.24-.1-.44-.12-.68.02-.19.1-.41.19-.58.12-.17.27-.34.41-.46.12-.1.31-.24.63-.41.24-.17.49-.34.68-.49v.8c-.1.07-.22.14-.34.22-.26.19-.46.31-.56.44-.12.1-.14.27-.19.39-.02.12-.02.24.07.36.05.2.22.34.44.41.17.05.36.02.58-.07v.7zm0-4.29v-.85h-.29c-.24.02-.55.12-.94.31-.36.15-.65.36-.89.58-.22.22-.36.46-.41.73-.07.24-.05.56 0 .87l.75-.22c-.05-.34-.02-.58.07-.8.1-.22.34-.39.68-.53.36-.19.68-.22.92-.14.03.03.06.03.11.05"/><path d="m66.95 83.04.6-.53c.22.24.44.38.7.41.24.03.51-.07.82-.26.32-.22.48-.39.56-.65.07-.19.05-.39-.07-.56-.1-.15-.27-.22-.44-.24-.15 0-.39.07-.82.22-.53.19-.94.36-1.18.36-.24.07-.48.05-.65-.07-.22-.1-.39-.24-.51-.44-.1-.17-.19-.36-.22-.56 0-.19.03-.41.1-.58.07-.15.12-.31.29-.48.14-.17.29-.32.53-.46.29-.22.58-.36.9-.41.26-.07.51-.05.7.02s.41.22.63.44l-.6.53c-.12-.19-.31-.26-.53-.29-.19-.02-.43.02-.7.22-.31.22-.48.39-.56.61-.07.17-.07.31.07.48.05.07.12.15.22.17.12.05.24.02.36-.02.07 0 .31-.05.7-.2.53-.17.92-.31 1.16-.34.24-.04.43-.02.65.05.19.09.36.24.56.48.12.19.19.46.19.75 0 .27-.07.51-.27.83-.12.24-.39.46-.7.68-.51.36-.94.48-1.35.46-.41-.07-.78-.24-1.14-.62"/><path d="m73.34 78 .7-.44c.22.41.29.85.19 1.26-.07.46-.34.83-.7 1.21-.53.46-1.09.65-1.64.61-.19 0-.36-.05-.53-.12v-.9c.24.17.48.24.7.29.36 0 .72-.1 1.04-.37.22-.22.32-.41.39-.68.06-.23-.01-.54-.15-.86m-1.99-2.13v.68c.12 0 .24.02.36.05.24.02.48.17.8.46l-1.16 1.04v.85l2.2-1.96c-.05-.07-.1-.12-.14-.15-.51-.61-1.07-.94-1.62-.97-.15-.02-.29-.02-.44 0m0 4.65c-.36-.15-.75-.41-1.11-.8-.51-.58-.77-1.16-.77-1.77s.27-1.11.75-1.55c.34-.31.72-.48 1.14-.53v.68c-.24.02-.48.12-.7.31-.27.27-.41.56-.41.92-.07.36.07.68.34 1.01l.77-.7v.85l-.39.36c.15.12.27.24.39.31v.91z"/><path d="m78.54 70.7.7-.53c.44.56.68 1.11.68 1.72.05.6-.17 1.18-.58 1.69-.39.53-.85.94-1.35 1.09-.48.19-.99.24-1.57.07-.58-.12-1.11-.41-1.57-.77-.56-.41-.94-.87-1.19-1.35-.24-.51-.31-1.04-.26-1.57.07-.51.29-1.01.65-1.48.36-.51.82-.82 1.38-.99.51-.15 1.04-.15 1.67.1l-.37.77c-.48-.17-.9-.17-1.26-.1-.31.1-.61.36-.87.7-.29.39-.46.8-.48 1.19.02.41.14.8.36 1.14.22.36.53.65.87.92.44.34.89.53 1.28.63.41.15.82.15 1.21-.05.37-.14.65-.36.87-.65.31-.39.44-.8.41-1.23 0-.48-.22-.89-.58-1.3"/><path d="m80.4 65.25c.31.05.68.17 1.04.41.51.29.89.61 1.09.92.22.34.31.7.31 1.11-.02.39-.12.78-.34 1.11-.32.58-.78.92-1.36 1.04-.24.07-.51.07-.75.02v-.8c.22.05.44.07.65.02.39-.07.7-.29.87-.63.22-.34.24-.7.12-1.04-.14-.39-.43-.75-.99-1.06-.24-.12-.46-.22-.65-.27v-.83zm-1.13 4.21c-.73-.43-1.16-.97-1.28-1.6-.12-.56 0-1.04.29-1.55.34-.53.8-.89 1.36-1.01.24-.07.5-.1.77-.05v.85c-.24-.07-.48-.07-.7-.05-.34.07-.65.29-.82.63-.22.34-.29.7-.14 1.06.12.39.46.73.97 1.02.24.14.48.27.7.31v.8c-.38-.04-.74-.17-1.15-.41"/><path d="m83.96 65.96-4.19-1.98.31-.68.58.32c-.31-.53-.36-1.09-.07-1.67.15-.26.29-.46.48-.63.22-.19.36-.29.58-.34.19 0 .44-.02.63.05.17.02.41.12.75.31l2.59 1.21-.36.72-2.57-1.23c-.32-.15-.51-.22-.7-.24-.17.03-.34.03-.48.17-.14.07-.27.22-.36.41-.15.29-.17.63-.1.94.1.32.39.58.94.85l2.32 1.09z"/><path d="m86.06 59.62.7.17c-.07.24-.1.44-.17.56-.1.29-.24.46-.41.61-.1.07-.27.17-.44.14-.15 0-.48-.1-.89-.27l-2.49-1.02-.24.53-.58-.24.24-.53-1.06-.46-.15-.87 1.5.63.31-.75.58.24-.31.75 2.52 1.02c.24.07.36.15.46.15.07-.02.12-.05.2-.1.07-.05.12-.1.14-.22.02-.1.07-.22.09-.34"/><path d="m86.96 59.28-4.4-1.62.26-.66.65.22c-.24-.27-.39-.48-.44-.68-.07-.2-.02-.36.02-.53.07-.24.26-.51.53-.68l.61.51c-.2.14-.32.31-.39.48s-.05.32 0 .48c.05.14.15.31.31.41.22.19.51.34.8.46l2.3.85z"/><path d="m86.3 51.78c.17.02.36.05.53.09.58.22 1.02.44 1.31.68.27.31.44.63.56 1.02.07.36.05.75-.1 1.14-.15.65-.51 1.09-1.02 1.35-.39.2-.82.27-1.28.2v-.82c.39.05.73.02.99-.07.34-.19.61-.46.7-.82.14-.37.07-.73-.12-1.07-.22-.36-.63-.61-1.21-.77-.15-.05-.27-.07-.36-.1zm-.65 4.33c-.82-.27-1.38-.65-1.62-1.26-.22-.51-.27-1.02-.1-1.55.2-.63.56-1.04 1.07-1.33.41-.19.82-.27 1.31-.19v.82c-.41-.07-.72-.02-1.02.07-.34.19-.6.46-.7.83-.15.36-.07.72.12 1.06.22.36.61.61 1.18.77.12.05.27.07.41.1v.82c-.21-.02-.43-.07-.65-.14"/><path d="m89.38 51.71-6.32-1.46.2-.77 6.26 1.45z"/><path d="m80.26 25.65v-.87l.31.26c0 .02.02.02.05 0l.44-.44v-.05l-.8-.72v-.87l1.74 1.6c.05.05.05.1 0 .15l-1.23 1.26c-.05.05-.1.05-.15 0zm0-2.69v.87l-.29-.29-.48.51.78.73v.87l-1.7-1.57v-.88l.36.34.48-.51-.85-.77v-.87zm-1.7 4.55v-.97l1.07.97-.51.51zm0-1.26c.46.1.97.22 1.5.32l.12-.73c-.46-.07-.92-.15-1.35-.24l.26-.29-.53-.48zm0-4.86v.87l-.36-.32-.48.48.85.77v.87l-.58-.53-.39.39.97.9v1.43c-.14-.02-.26-.05-.41-.1l.41.39v.97l-1.09-1.02v-1.23c.24.07.48.14.75.22l-.75-.7v-3.15l.19-.19-.19-.19v-.87zm-1.09 7.31.58-.58c.12-.12.12-.24-.02-.37l-.56-.51zm0-8.33v.87l-.51-.46v-.87zm0 1.26v3.15l-.36-.34-.15.14v-1.26l.05.07.39-.39-.44-.44v-.85l.22.19zm0 3.63v1.23l-.51-.48v-.97l.1.1c.12.05.27.07.41.12m0 1.98v1.45l-.51.53v-1.07l.19-.22c.05-.05.05-.1 0-.15l-.19-.17v-.87zm-.5-7.33v.87l-.44-.39c0-.02-.02-.02-.02 0l-.43.44c-.03.02-.03.02-.03.05l.92.85v.85l-1.86-1.69c-.05-.05-.02-.1.02-.15l1.23-1.26c.05-.05.1-.05.12 0zm0 3.41-1.81-1.64-.48.51 1.86 1.72-.39.39-1.57-1.45v.97l.68.63c-.22-.1-.44-.22-.68-.32v1.31l2.4 2.2v-.87l-1.64-1.5c.05 0 .07 0 .12.02.36.17.77.31 1.21.46l.31.27v-.97l-.24-.22.24-.24v-1.27zm0 4.84v1.07l-1.04 1.04-.53-.51.27-.27-1.09-.97v-.87l1.52 1.38.34-.34-1.87-1.69v-.87l2.3 2.13zm-2.4-10.06v-.31l.17.07zm0-.32v.31l-2.98 4.72v-1.45l2.47-3.9zm0 5.06-.97-.9-.51.51 1.48 1.35zm0 1.28v1.31l-.63-.58c-.05-.05-.1-.05-.15 0l-.29.29 1.07.99v.87l-1.5-1.4-.34.34 1.84 1.72v.87l-2.27-2.13-.27.27-.44-.41v-.22l1.72-1.74c-.44-.24-.82-.51-1.16-.75l.31-.68c.71.48 1.43.89 2.11 1.25m-2.98-4.4 1.48-2.35-.68-.41-.8 1.28zm0-2.64v-.24l.1.07zm0-.24v.24l-.31.49-.8-.49v-.9zm0 1.4v1.48l-1.11 1.74v-1.48zm0 3.13-1.11 1.74v1.31c.1-.07.19-.17.29-.29l.82-1.31zm0 4.66v.22l-.12-.1zm-1.11-6.82.44-.65-.44-.24zm0-3.03v.9l-.92-.53-.56.87 1.48.89v.9l-1.89-1.11-.41.63 1.6.94c.12.07.15.17.07.29l-1.48 2.35c-.19.26-.39.39-.7.41-.29 0-.7-.19-1.16-.6l.41-.75c.29.31.48.46.58.46.17 0 .29-.07.39-.19l.94-1.55c.03-.02 0-.05-.02-.07l-1.02-.63-1.81 2.88-.68-.41 1.81-2.85-1.04-.63c-.02-.03-.07-.03-.09.02l-1.38 2.18v-1.48l1.07-1.65c.07-.12.14-.14.27-.07l1.6.94.41-.63-1.96-1.19.41-.65 1.93 1.18.56-.89-1.04-.63c-.34.17-.65.32-.94.41l-.39-.7c.77-.24 1.43-.63 1.91-1.11l.53.56c-.15.12-.29.24-.44.36l.8.46.48-.77.68.41-.48.76zm0 3.8-1.21 1.91.68.41.53-.85zm0 3.13v1.31c-.15.09-.31.14-.48.17-.34 0-.8-.29-1.35-.87l.44-.68c.17.2.31.34.41.44.19.19.36.27.51.27.07-.02.15-.07.2-.2zm-5.88-7.29c.19-.29.34-.58.44-.85l-.44-.36zm0-2.42v-.68l.82.22-.19.63zm0-.67v.68l-.89-.24c.05.22.07.44.1.7l-.75.07c-.02-.39-.07-.73-.12-.99l-.65-.17v.02c-.22.19-.46.39-.72.56-.02-.07-.07-.15-.1-.2l-.15.48 3.19.87.1.1v1.21c-.1.2-.22.36-.36.56l-.58-.39c.26-.44.41-.68.44-.75.02-.07 0-.12-.07-.15l-4.91-1.33v-.73l1.45.39.17-.63.61.17c-.07-.1-.12-.17-.19-.22.46-.29.85-.7 1.16-1.24l.65.44c-.05.07-.12.17-.19.26zm0 6.36v1.48l-.12.2-.68-.39zm-5.49.17v-.8l2.71.75c.05 0 .1-.02.12-.07l.15-.58c.02-.05 0-.07-.05-.1l-2.93-.77v-.73l3.73.99c.17.05.24.14.2.31l-.48 1.65c-.05.17-.15.22-.34.17zm0-2.88 3.58.97c.15.05.24 0 .27-.14l.49-1.62c.02-.14-.02-.22-.17-.26l-4.16-1.14v.73l3.34.92c.07.02.1.05.1.12l-.15.51c-.02.05-.07.07-.14.07l-3.15-.87v.71zm0-4.43c.02.24.05.51.07.85l.73-.05c0-.24-.02-.44-.05-.63l1.18.31.19-.63-2.13-.58v.73zm0-.87v-.07l.02.02c0 .03-.02.03-.02.05m0-.07v.07c-.05.02-.1.07-.12.12l.12.02v.73s0-.02-.03-.05l-.7-.2c-.36.29-.75.51-1.11.7-.1-.29-.19-.53-.31-.68.6-.27 1.13-.68 1.62-1.24zm0 2.03v.73l-1.6-.44c-.05 0-.1.02-.1.05l-.29 1.02-.7-.19.46-1.62c.05-.07.1-.1.17-.07zm0 1.14-1.16-.31c-.15-.02-.22.03-.27.15l-1.23 4.26c-.05.17.02.27.17.32l2.49.68v-.8l-1.72-.48c-.05 0-.07-.05-.05-.1l.19-.65 1.57.44v-.73l-1.38-.39.14-.51 1.24.31v-.72l-1.04-.27.17-.61c.02-.05.05-.07.12-.07l.75.19v-.71zm-7.14.89v-3.39l2.78-.07.02.73-2.54.07.02.68 2.35-.05c.19 0 .29.07.29.24l.1 3.84c0 .31-.1.58-.34.75-.34.24-.99.26-1.98.1l-.05-.82c.49.12.87.19 1.09.19.12 0 .24-.05.31-.09.14-.1.22-.22.19-.36l-.07-3.05c0-.05-.02-.05-.05-.05l-1.86.05c-.02.12-.05.29-.07.48.63.61 1.26 1.23 1.84 1.91l-.58.51c-.41-.5-.89-1.04-1.45-1.67m0-3.97v-.72l2.95-.07.02.73zm0-.72v.72l-3.34.07c-.07.02-.1.05-.1.12l.07 2.9c.02 1.55-.41 2.88-1.31 3.97l-.68-.34c.51-.65.85-1.28 1.02-1.84.1-.36.15-.75.17-1.19-.32.24-.61.46-.87.63l-.36-.58v-.1c.22-.14.63-.46 1.26-.97l-.07-3.12c0-.12.07-.19.22-.19l3.05-.07-.03-.64.8-.02.02.65zm0 1.3-2.9.07.02.72 2.4-.05.03.68-2.25.05c-.17 0-.26.1-.26.27l.12 4.69h.75l-.1-4.19c0-.02.02-.05.05-.05l1.67-.05c-.17 1.21-.65 2.03-1.5 2.52l.58.51c.7-.51 1.16-1.11 1.4-1.79v-3.38zm-5.39 6.13.07-.12h-.07zm0-6.36c.12.46.24.99.32 1.65l.72-.12c-.12-.9-.27-1.64-.48-2.25l-.56.14zm0-.59v.58c0-.07-.02-.15-.05-.22v-.36zm0 3.9v.1l-.05-.07c.02-.01.05-.03.05-.03m0 2.93v.12l-.05.12v-.24zm-.05-6.83v.36c-.02-.12-.07-.22-.12-.34zm0 6.83v.24l-.24.51c-1.35-.29-2.42-.92-3.15-1.86-.02 0-.02 0 0 0-.05.17-.17.48-.34.92-.15.27-.31.51-.51.75v-1.62c.07-.2.12-.41.15-.63l-.15.03v-.75l.07-.02v-.05l-.07-.31v-1.89l2.76-.6.17.73-2.4.51.31 1.4c0 .02.03.02 0 .07l2.61-.58.17.73-2.51.53c.59.97 1.63 1.6 3.13 1.89m-4.24-5.59v-.75l2.54-.53.14.7zm0-.75v.75l-3.29.72c-.07 0-.1.05-.1.1l.7 3.02c.31 1.45.1 2.78-.7 4.02l-.73-.24c.44-.73.7-1.38.77-1.94.05-.44.02-.92-.05-1.43l-.8.85-.56-.39v-.17l1.16-1.23-.68-2.93c-.03-.14.02-.22.17-.27l2.83-.61-.15-.65.77-.17.15.65zm0 1.64-1.5.32c0-.19-.02-.41-.05-.61l-.74.1c.05.53.05.94 0 1.23-.07.36-.19.7-.39 1.07l.72.26c.19-.36.34-.77.41-1.26.02 0 .02-.02 0-.05l1.31-.27.24 1.09zm0 2.28-2.35.51.17.73 2.18-.48zm0 1.35c-.14.53-.43.99-.82 1.38-.46.44-.89.77-1.28.99l.6.58c.63-.41 1.11-.87 1.5-1.33zm-4.74 2.83c.05-.1.07-.19.1-.31 0-.22-.03-.46-.1-.68zm0-4.43.65-.24c-.19-.58-.41-1.11-.65-1.55zm0-1.79v1.79l-.02.02c-.12-.36-.26-.7-.39-.99v-1.21l.15-.07c.09.15.19.3.26.46m0 3.42v.17l-.07-.07zm0 1.81v.99c-.05.12-.1.24-.19.34-.07.05-.15.12-.22.17v-2.3c.2.27.34.54.41.8m-.41-5.61v1.21c-.17-.39-.34-.7-.51-.97zm0 4.81c-.1-.12-.19-.27-.32-.39-.34-.32-.82-.63-1.45-.97-.07-.02-.12-.1-.15-.17l-.46-2.76-.63-.15-2.32 1.14v.46l3.53 6.92.7-.34-3.34-6.53c-.02-.07-.02-.12.05-.14l1.35-.65s0 .02.03.09l.41 2.42c0 .05.05.09.14.14.94.48 1.55.92 1.86 1.33.36.58.41.99.15 1.21-.17.17-.58.24-1.18.24l.29.8c.58-.05 1.01-.15 1.33-.36v-2.29zm-5.32 5.28v-.8l1.77-.85-.7-1.38c-.05-.07-.07-.07-.15-.05l-.92.46v-.8l1.23-.58c.1-.05.17-.02.2.05l1.53 2.95-.68.34-.19-.36zm0-4.17v-.77l1.02-.51.31.63zm0-4.4v.46l-.15-.24v-.02-.12c.02 0 .05-.02.07-.05zm0 3.63v.77l-.15.07v-1.62c.05.24.07.51.1.77h.05zm0 1.53v.8l-.15.05v-.78zm0 2.61v.8l-.15.05v-.78zm-.15 1.3v-.04l.02.02zm0-7.76v-.05l.02.02zm0-1.24v.12c-.02-.04-.02-.07 0-.12m0 1.19v.05l-1.81.87v-.77l1.52-.75zm0 1.6c-.05-.36-.12-.68-.17-.94l-.73.07c.15.46.25 1.11.32 1.98l-1.23.61v.77l1.81-.87zm0 2.37v.78l-1.14.55c-.07.05-.1.07-.05.15l.7 1.38.48-.24v.78l-.17.1.17.31v.05l-.65.31-1.16-2.27v-.99zm-1.81 5.35c.17-.19.29-.39.34-.58.07-.31 0-.58-.24-.85l-.1-.1zm0-6.37v-.34c.05.07.12.15.17.2zm0-2.81v.77l-.65.32v-1.53l.27-.12.29.58zm0 2.47v.34l-.39.29c-.07-.1-.17-.19-.27-.29v-.99c.27.27.49.46.66.65m0 .71v.77l-.65.31v-.8zm0 1.54v.99l-.36-.7c-.05-.07-.02-.12.05-.15zm0 2.93v1.53c-.17.17-.39.34-.65.51v-1.04c.1-.1.15-.19.15-.27 0-.07-.02-.14-.12-.24l-.02-.02v-1.11zm-.66-8.08v1.53l-1.4.68-.32-.63 1.58-.75-.29-.61zm0 2.25c-.07-.07-.17-.17-.29-.27l-.51.46c.24.22.51.48.8.8zm0 1.64v.8l-.26.12-.34-.63zm0 3.54v1.11l-4.26-4.38v-1.11zm0 1.64v1.04c-.19.15-.46.29-.72.44l-.56-.61c.66-.33 1.09-.62 1.28-.87m-4.26 2.57v-1.11l1.87 1.91-.58.53zm0-2.11v-.73c.37.05.73.1 1.09.15l-.12.77c-.29-.07-.63-.11-.97-.19m0-2.64 2.32 2.4.58-.53-2.91-2.98v1.11zm0-3.84v1.11l-.72-.73.58-.53zm0 2.73v1.11l-1.86-1.91.56-.53zm0 3.03c-.6-.07-1.21-.12-1.84-.17l-.02-.02 1.33-1.26-.53-.56-1.14 1.04v2.69c.17.7.27 1.45.29 2.2l.8-.24c-.07-.82-.22-1.64-.48-2.47l1.59 1.62v-1.11l-1.11-1.14c.39.05.75.1 1.11.15zm-2.2 9.51v-.2l.1.05zm0-.8v-1.69l.05.02.63-1.21-.68-.31v-.82l2.01.97-.34.66-.34-.17zm0-9.68v2.69c-.1-.44-.22-.85-.39-1.26l-.85.78v-1.07l.44-.39-.44-.46v-2.18c.19-.22.36-.46.51-.66l.63.44c-.17.29-.53.72-1.02 1.33-.02 0-.02.02-.02.02l.92.97zm0 5.66v.82l-.05-.02-.63 1.21.68.32v1.69l-.24.48.24.12v.2l-.24.51-.99-.46v-.82l.34.15.61-1.19-.73-.34-.22.41v-1.55l.56-1.04-.56-.27v-.82zm-1.23 7.23v-.82l.39.19-.34.65zm0-14.78v2.18l-.44-.44c-.24.27-.48.53-.7.75v-1.16c.44-.46.82-.92 1.14-1.33m0 3.03v1.07l-.46.44-.55-.58zm0 3.92v.82l-.22-.12c-.07-.02-.12 0-.15.05l-.58 1.14.87.41.07-.17v1.55l-.39.77.39.2v.82l-1.14-.56v-.82l.12.05.61-1.19-.72-.34v-1.91l.41-.77c.07-.14.19-.19.34-.12zm0 7.01v.82l-1.14-.56v-.81zm-1.14 4.58v-2.78l.6.15zm0-5.69.07.05.27-.58-.34-.15zm0-11.52v1.16c-.17.17-.32.34-.46.46v-1.14c.17-.14.32-.31.46-.48m0 6.32v1.91l-.15-.07-.31.6v-1.57zm0 3.38v.82l-.46-.22v-.82zm0 1.14v.68l-.46-.17v-.68zm0 1.24v.82l-.46-.22v-.82zm0 2.34v2.78l-.46 1.94v-3.53l.29-1.21zm-.46-.55v-.6c.12.07.22.15.31.19zm0-7.89v-.73l.22.1c.07.05.07.09.05.15zm0-5.49v1.14c0 .02-.02.05-.02.05l-.61-.44v-.07c.22-.23.44-.47.63-.68m0 4.76v.73l-.63 1.26v-1.41l.03-.05c0-.02 0-.05-.03-.05v-.02-.77zm0 1.94-.63 1.26v1.55l.63.31v-.82l-.19-.1c-.07-.05-.07-.07-.05-.15l.24-.48zm0 3.48v.68l-.63-.27v-.68zm0 1.19v.82l-.63-.31v-.82zm0 1.4v.6l-.12.17c-.17-.12-.34-.24-.51-.36v-.82c.22.15.44.29.63.41m0 2.35v3.53l-.63 2.83v-4.16l.12.02zm-.63 14.64v-.72h.1l-.02.72zm0-3.95h.05v.73h-.05zm0-1.45v-1.6c.03.05.08.1.1.14.17.24.15.73-.07 1.45h-.03zm0-23.69v.07l-.05-.02c.03-.02.03-.02.05-.05m0 3.78v.77l-.19-.07v-.8zm0 .89v1.41l-.19.36v-1.4zm0 2.62v1.55l-.19-.1v-1.09zm0 1.96v.68l-.19-.07v-.68zm0 1.13v.82l-.19-.1v-.82zm0 1.31v.82c-.07-.05-.12-.07-.19-.12v-.8c.07.03.12.07.19.1m0 4.96v4.16l-.12.48h-.07v-3.22l.15-.61-.15-.02v-.85zm0 5.44v1.6h-.19v-1.74c.07.05.12.1.19.14m0 3.78h-.19v-.73h.19zm0 3.22h-.19v-.73h.19zm-.19-25.41v.8l-.51-.24c0-.03-.02 0-.02 0l-.94 1.81v-1.43l.65-1.23c.02-.05.07-.07.12-.05zm0 1.36-1.02 1.98h-.05l-.41-.2v.77l.61.29c.07.02.1.02.15-.02l.72-1.43zm0 2.61v1.09l-.22-.12c-.14-.07-.19-.17-.12-.31zm0 1.52-1.4-.58-.07.15v.51l1.47.6zm0 1.12v.82l-1.47-.7v-.82zm0 1.31c-.43-.27-.92-.54-1.47-.85v.78c.51.29 1.02.58 1.47.87zm0 5v.85l-1.47-.34v-.82zm0 1.48v3.22l-.7-.17zm0 3.87v1.74l-.55-.02c.07-.24.12-.41.17-.48.05-.29.05-.46-.02-.53-.05-.05-.14-.07-.27-.07l-.8-.02v-.73h1.02c.16.01.33.04.45.11m0 3.19-.82-.02.02-1.74h-.68v4.72h.63l.02-2.23h.82v-.73zm0 3.22v.72h-1.47v-.75zm-1.47-14.01v-1.07l.24.05zm0-10.89.31-.6-.31-.15zm0-.75v.75l-.41.85v-1.64l.07-.14zm0 1.91v1.43l-.29.58c-.02.02-.02.05 0 .05l.29.14v.77l-.41-.19v-1.94zm0 4.12v.51l-.15-.07zm0 .85v.82l-.41-.22v-.82zm0 1.15v.78c-.12-.07-.27-.15-.41-.22v-.78c.14.08.28.15.41.22m0 2.55v1.07l-.41 1.84.41.1v.82l-.41-.07v-3.82zm0 9.26h-.42v-.73h.41v.73zm0 .83v4.72h-.1l.03-.53h-.35v-.75h.34v-.97h-.34v-.73h.36v-1.74zm0 5.71h-.42v-.75h.41v.75zm-.42-20.91v-.22l.07.05zm0-5.52v1.64l-.68 1.31v-1.64zm0 2.81-.68 1.31v.29l.68.34zm0 2.49v.22l-.51.94.51.24v.82l-.68-.31v-2.03l.07-.17zm0 2.57v.78c-.22-.12-.46-.24-.68-.34l.39-.61c.1.07.2.12.29.17m0 2.68v3.82l-.19-.05-.48 2.18v-3.53l.56-2.44zm0 8.62v.73h-.68v-.75zm0 3.29v.73h-.36v.97h.36v.75l-.36-.03-.02.36h-.29v-4.4h.34v1.62zm0 3.22v.75l-.68-.02v-.72h.68zm-.67-24.37v1.64l-.73 1.41-.41-.2v-.65zm0 2.81-.07.15c-.05.07-.02.1.02.12l.05.02zm0 1.06v2.03l-.17-.07-.51.99-.46-.22v-.54zm0 7.79v3.53l-.14.63-.77-.17.63-2.81-.85-.19v-.83l1.04.24zm0 6.17v.75l-1.14-.02v-.73zm0 1.7v4.4h-.41l.02-2.06h-.48l-.02 1.84c0 .07-.05.1-.12.1h-.12v-4.16h.17c.07 0 .12.02.12.1l-.02 1.38h.48l.03-1.6zm0 4.84v.72h-.73c.05.05.1.08.14.12l-.41.65c-.05-.05-.1-.1-.15-.15v-1.35h1.15zm-1.14-20.45.22-.44-.22-.1zm0-1.72v.65l-.27-.14zm0 1.19v.53l-.7 1.36v-1.62l.24-.48zm0 2.68v.54l-.22-.1zm0 5.76v.83l-.7-.15v-.82zm0 6.73h-.7v-.73h.7zm0 1.09v4.16h-.7v-.75l.19.02s.02-.02.02-.05l.02-2.64c0-.02 0-.02-.02-.02h-.22v-.75zm0 4.72v1.35c-.24-.19-.46-.36-.7-.51v-.87zm-.7-8.16v-.63c.1.12.19.27.29.39zm0-6.05v-1.77l.39.09zm-2.66 15.05c.31.17.6.36.87.58l.36-.65c-.32-.29-.73-.53-1.24-.75v.82zm2.66-21.55v1.62l-.29.58-.68-.34zm0 4.74v1.77l-.34 1.45.34.07v.82l-.51-.1-.51 2.18c.39.31.72.63 1.02.99v.63l-.36.29c-.34-.48-.73-.92-1.19-1.28-.24-.22-.63-.44-1.11-.65v-.89c.34.15.65.29.94.46l.44-1.89-1.38-.31v-.82l1.55.34.73-3.12zm0 9.43v.73h-.68v.92h-.7l-.07 4.67h-.7v-1.38c-.17-.05-.34-.09-.51-.12v-.75c.19.05.36.07.53.09v-1.28l-.41-.02c-.07.02-.1.05-.1.09l-.02.85v-1.67h.56v-.51h.68l.02-2.08h.75v.43zm0 1.79h-.85c-.05 0-.1.05-.1.1l-.05 3.97c0 .07.02.1.1.12h.89v-.75h-.24c0 .02-.02 0-.02-.02l.02-2.64c0-.02.02-.02.05-.02h.19v-.76zm0 4.72h-.05c-.31-.12-.65-.27-1.04-.38l-.22.7c.46.12.89.31 1.31.56zm-3.1.68c.14.05.29.12.44.19v-.82c-.12-.05-.27-.1-.44-.17zm.44-13.91v.82l-.17-.03zm0 2.56v.89c-.12-.05-.27-.12-.44-.19v-.48l.14-.34c.1.05.2.1.3.12m0 6.29v1.67.27.75l-.03.99h-.41v-3.68zm-.44-2.49h.39v1.96h-.39zm-.8 7.28c.29.05.56.15.8.27v-.8c-.19-.05-.39-.12-.61-.2zm.8-10.86v.48c-.05-.02-.1-.02-.17-.05zm0 3.58v1.96l-.39-.02.02-1.96zm0 2.49v3.68l-.29-.02v-1.12c-.24-.05-.41-.07-.51-.07l.17-.7c.1 0 .19.02.36.05v-1.64c0-.12.07-.17.19-.17h.08z"/></g></svg>